<?xml version="1.0" encoding="UTF-8"?>
<svg xmlns="http://www.w3.org/2000/svg" viewBox="-14 8 400 400" width="400" height="400">
  <path id="Body" style="fill-rule:evenodd;clip-rule:evenodd;fill:#FFF8EA;" d="M325.0865,303.9622l-63.68-80.79h34.4101v-0.0101
		c5.2699,0.0101,8.2099-6.2299,4.7099-10.2999l-50.85-59.05c-8.81,8.46-19.65,15.16-31.82,19.44l-31.4-31.4001
		c16.59-0.0099,32.09-3.25,45.28-8.87l-0.0499-0.0599h25.4799v-0.03c5.36,0,8.25-6.42,4.5901-10.4101l-5.0501-5.5199l-65.7599-71.85
		c-2.4701-2.69-6.7301-2.69-9.1801,0l-65.7599,71.85l-4.6401,5.07c-4.5,4.46-1.0499,10.89,4.18,10.89h25.48l-0.05,0.0599
		c13.19,5.6101,28.69,8.8601,45.2801,8.87l-31.3901,31.4001c-12.1699-4.28-23.02-10.98-31.83-19.44l-50.5299,58.69
		c-4.1401,4.44-0.7801,10.67,4.3999,10.67h34.4101l-63.4601,80.52c-3.65,4.39-0.4099,10.37,4.69,10.37h89.3691v44.0936
		c0,6.6732,5.4097,12.0829,12.0828,12.0829h64.7232c6.6732,0,12.0829-5.4097,12.0829-12.0829v-44.0936h89.3821v-0.01
		C325.2365,314.0522,328.3465,308.0922,325.0865,303.9622z"/>
  <path id="Tie" style="fill:#D65A45;" d="M210.171,290.826l-21.2513,15.1733c-1.5305,1.0931-3.6294,1.0931-5.16,0l-21.2513-15.1733
		c-1.3993-1.0057-2.0989-2.7111-1.7928-4.3727l18.1153-85.3921c0.7545-3.5567,3.8946-6.1006,7.5304-6.1006l0,0
		c3.6359,0,6.776,2.5439,7.5305,6.1006l18.1153,85.3921c0.3061,1.6616-0.4373,3.3669-1.7928,4.3727H210.171z"/>
  <path id="TieNose" style="fill:#D65A45;" d="M165.4845,175.0575l20.8755-20.8756l20.8756,20.8756l-8.4156,8.4156
		c-6.8815,6.8814-18.0385,6.8814-24.9199,0L165.4845,175.0575z"/>
</svg>
